<?xml version="1.0" standalone="no"?>
<!DOCTYPE svg PUBLIC "-//W3C//DTD SVG 20010904//EN"
 "http://www.w3.org/TR/2001/REC-SVG-20010904/DTD/svg10.dtd">
<svg version="1.0" xmlns="http://www.w3.org/2000/svg"
 width="800.000000pt" height="600.000000pt" viewBox="0 0 800.000000 600.000000"
 preserveAspectRatio="xMidYMid meet">
<metadata>
Created by potrace 1.16, written by Peter Selinger 2001-2019
</metadata>
<g transform="translate(0.000000,600.000000) scale(0.100000,-0.100000)"
fill="#000000" stroke="none">
<path d="M4768 5210 c-48 -10 -118 -28 -155 -40 -89 -29 -300 -130 -436 -209
l-107 -62 -108 11 c-77 8 -110 16 -117 27 -32 51 -52 65 -98 70 -55 6 -88 -11
-117 -61 -19 -31 -22 -32 -126 -44 -59 -7 -165 -28 -235 -46 -105 -27 -131
-30 -140 -20 -14 17 -71 28 -102 20 -33 -8 -74 -52 -82 -85 -5 -22 -20 -34
-77 -62 -79 -37 -208 -116 -305 -185 -62 -45 -63 -45 -47 -69 19 -29 31 -31
56 -8 17 15 24 14 106 -10 135 -42 196 -50 322 -44 246 13 550 122 951 342
141 77 131 77 329 20 251 -72 475 -189 685 -356 l78 -62 -24 -19 c-52 -40
-187 -127 -249 -159 -36 -18 -132 -56 -213 -84 -82 -27 -148 -54 -148 -60 3
-18 123 -7 216 20 110 32 287 115 399 189 l84 54 82 -93 c85 -97 141 -172 198
-262 l33 -52 -25 -38 c-53 -80 -54 -209 -1 -299 97 -166 334 -195 470 -58 58
59 80 115 80 206 l0 76 49 21 c45 19 52 19 73 6 50 -33 113 -3 113 54 0 37
-35 122 -57 139 -22 16 -74 16 -97 -1 -10 -7 -21 -28 -25 -47 -6 -29 -14 -38
-53 -54 l-47 -19 -42 37 c-91 83 -214 106 -329 61 -10 -3 -22 6 -34 27 -39 66
-158 220 -227 293 l-71 75 54 58 c144 156 206 319 179 467 -50 272 -314 405
-663 335z m275 -95 c126 -26 207 -87 253 -190 46 -103 38 -203 -26 -324 -32
-60 -126 -181 -141 -181 -5 0 -38 24 -74 52 -115 92 -236 167 -387 241 -127
62 -147 75 -148 96 0 13 -15 38 -34 57 -29 29 -41 34 -79 34 -34 0 -53 -6 -74
-24 -28 -24 -32 -24 -79 -12 l-49 13 75 38 c189 97 291 140 411 174 146 41
247 48 352 26z m-1128 -291 c20 -8 -73 -63 -295 -174 -384 -193 -675 -250
-906 -179 l-68 21 23 19 c13 10 62 41 110 68 212 119 461 203 698 236 101 13
409 20 438 9z m1785 -1093 c23 -22 28 -35 24 -57 -6 -37 -38 -64 -75 -64 -66
0 -95 88 -43 129 36 28 60 26 94 -8z"/>
<path d="M3830 4429 c-351 -40 -731 -174 -1001 -352 l-86 -56 -54 14 c-80 22
-178 30 -329 29 -157 -1 -269 -14 -431 -51 l-117 -26 47 -31 c35 -24 49 -41
61 -76 8 -25 15 -46 15 -47 0 -1 47 12 105 28 191 54 399 92 563 102 90 5 69
-26 -29 -44 -141 -25 -354 -88 -504 -149 -30 -12 -66 -26 -79 -31 l-24 -10 21
-14 c30 -22 62 -78 70 -124 l7 -40 106 69 c99 65 311 180 331 180 21 0 -24
-44 -93 -91 -140 -96 -319 -249 -291 -249 20 0 82 -62 103 -101 l19 -38 -25
-88 c-48 -164 -60 -254 -60 -453 1 -152 5 -205 23 -298 69 -342 206 -598 454
-846 113 -113 146 -152 175 -210 146 -292 337 -521 528 -631 l49 -29 -71 82
c-88 102 -158 219 -189 318 -22 69 -31 134 -19 134 3 0 31 -11 63 -24 78 -32
203 -72 287 -92 67 -16 267 -44 273 -39 1 1 -35 14 -80 28 -293 92 -514 275
-627 519 -68 144 -86 237 -86 428 0 149 3 175 28 265 139 501 571 933 1261
1260 72 34 192 86 266 115 74 29 137 54 138 55 8 7 -59 35 -129 56 -43 12
-121 24 -186 27 l-111 7 109 240 c60 131 109 240 109 241 0 7 -79 26 -165 39
-107 16 -303 18 -425 4z m-337 -299 c-25 -69 -29 -215 -8 -286 32 -112 103
-211 199 -275 48 -33 55 -40 31 -35 -48 12 -134 53 -175 86 -112 88 -160 273
-110 421 20 58 67 145 75 137 2 -2 -3 -24 -12 -48z m504 13 c28 -10 54 -25 56
-34 8 -29 -19 -75 -52 -88 -78 -33 -148 39 -115 118 15 37 16 37 111 4z
m-1062 -605 c1 -61 13 -101 51 -159 16 -25 16 -26 -32 -78 -142 -154 -251
-376 -306 -625 l-25 -110 -6 49 c-12 82 -8 249 8 337 26 152 97 332 188 478
29 46 118 170 122 170 0 0 0 -28 0 -62z"/>
<path d="M5340 3494 c0 -51 28 -128 64 -175 41 -54 116 -96 195 -110 l60 -11
6 -46 c3 -26 8 -57 11 -69 2 -12 -2 -26 -9 -30 -34 -20 -45 -59 -52 -183 -19
-372 -117 -664 -322 -963 -29 -43 -53 -88 -54 -100 -5 -95 29 -142 117 -161
67 -15 116 24 205 162 208 320 325 688 330 1037 2 155 3 154 -41 197 -36 36
-40 46 -50 120 -11 78 -11 81 12 96 57 40 100 107 117 181 5 23 8 41 6 41 -2
0 -15 -20 -30 -45 -27 -47 -84 -95 -145 -122 -56 -25 -174 -22 -236 5 -62 28
-127 93 -159 158 -23 47 -24 48 -25 18z"/>
<path d="M3649 3147 c-324 -226 -550 -554 -613 -887 -20 -105 -20 -259 -1
-358 18 -89 86 -238 150 -328 144 -201 346 -328 587 -369 23 -3 42 -14 48 -25
16 -30 113 -99 169 -121 28 -10 51 -17 51 -14 0 3 -9 23 -20 45 -11 22 -20 52
-20 69 l0 29 78 4 c76 5 77 4 112 -28 31 -29 139 -88 147 -80 2 2 -6 23 -17
49 -28 62 -17 88 43 104 43 12 48 11 112 -22 36 -19 79 -35 95 -35 l29 0 -24
36 c-42 62 -36 76 52 112 47 20 54 21 87 7 19 -8 56 -15 82 -15 l46 0 -31 29
c-17 16 -31 34 -31 40 0 5 21 22 46 37 l45 27 15 -22 c32 -45 194 -239 268
-321 100 -111 225 -221 289 -256 l51 -27 -24 39 c-203 336 -286 491 -325 609
-29 84 -25 127 16 179 l21 27 -33 -14 c-19 -8 -70 -31 -114 -52 -294 -136
-644 -205 -894 -176 -436 51 -738 263 -851 596 -71 212 -44 469 76 708 56 110
147 237 246 342 50 52 88 95 86 94 -1 0 -24 -14 -49 -32z"/>
<path d="M3688 3029 c-224 -229 -342 -472 -355 -724 -7 -142 11 -229 73 -355
39 -79 61 -110 133 -181 184 -184 428 -275 746 -278 266 -3 470 41 762 164
l112 47 -27 23 c-24 20 -27 29 -25 82 2 102 82 312 203 532 28 51 49 95 47 98
-3 2 -32 -22 -66 -53 -107 -99 -254 -310 -410 -591 l-63 -111 -68 -13 c-37 -6
-75 -9 -84 -6 -15 6 -15 10 -1 43 8 21 14 38 12 40 -7 8 -96 -41 -124 -68 -29
-28 -35 -30 -76 -24 -64 10 -73 39 -32 100 l24 36 -22 0 c-29 -1 -103 -34
-145 -66 l-33 -26 -55 22 c-37 15 -54 28 -54 40 0 19 63 80 82 80 8 0 9 3 2
10 -19 19 -118 23 -183 6 l-63 -16 -45 37 c-25 20 -65 60 -89 88 -53 60 -50
64 58 90 54 14 97 16 191 12 67 -2 131 -8 142 -12 20 -7 20 -6 1 9 -56 46
-225 84 -407 93 l-127 6 -32 80 c-18 44 -39 112 -47 151 -26 116 -20 406 8
406 5 0 67 -31 138 -70 70 -38 130 -70 134 -70 13 0 18 90 7 150 -12 67 -79
219 -124 279 l-26 35 -92 -95z"/>
</g>
</svg>
